# Blender v2.90.1 OBJ File: 'walls_floors.blend'
# www.blender.org
mtllib wall_hole.mtl
o Hole_Cube.005
v 0.991759 2.991759 -0.500000
v 0.991759 1.008241 -0.500000
v 0.991759 2.991759 0.500000
v 0.991759 1.008241 0.500000
v -0.991759 2.991759 -0.500000
v -0.991759 1.008241 -0.500000
v -0.991759 2.991759 0.500000
v -0.991759 1.008241 0.500000
v 2.000000 4.000000 0.500000
v -2.000000 4.000000 0.500000
v -2.000000 4.000000 -0.500000
v 2.000000 4.000000 -0.500000
v -2.000000 0.000000 -0.500000
v 2.000000 0.000000 0.500000
v -2.000000 0.000000 0.500000
v 2.000000 0.000000 -0.500000
vt 1.000000 1.000000
vt 0.000000 1.000000
vt 0.000000 1.000000
vt 1.000000 1.000000
vt 0.000000 0.000000
vt 0.000000 0.000000
vt 1.000000 0.000000
vt 1.000000 0.000000
vt 0.747940 0.252060
vt 0.252060 0.252060
vt 0.252060 0.252060
vt 0.747940 0.252060
vt 0.747940 0.747940
vt 0.747940 0.747940
vt 0.252060 0.747940
vt 0.252060 0.747940
vn 0.0000 1.0000 0.0000
vn -1.0000 0.0000 0.0000
vn 1.0000 0.0000 0.0000
vn 0.0000 -1.0000 0.0000
vn 0.0000 0.0000 1.0000
vn 0.0000 0.0000 -1.0000
usemtl Base
s off
f 12/1/1 11/2/1 10/3/1 9/4/1
f 10/3/2 11/2/2 13/5/2 15/6/2
f 16/7/3 12/1/3 9/4/3 14/8/3
f 13/5/4 16/7/4 14/8/4 15/6/4
f 2/9/1 6/10/1 8/11/1 4/12/1
f 1/13/2 2/9/2 4/12/2 3/14/2
f 7/15/5 3/14/5 9/4/5 10/3/5
f 1/13/6 5/16/6 11/2/6 12/1/6
f 5/16/6 6/10/6 13/5/6 11/2/6
f 3/14/5 4/12/5 14/8/5 9/4/5
f 8/11/5 7/15/5 10/3/5 15/6/5
f 2/9/6 1/13/6 12/1/6 16/7/6
f 6/10/6 2/9/6 16/7/6 13/5/6
f 4/12/5 8/11/5 15/6/5 14/8/5
f 6/10/3 5/16/3 7/15/3 8/11/3
f 5/16/4 1/13/4 3/14/4 7/15/4
